<svg version="1.1" xmlns="http://www.w3.org/2000/svg" viewBox="-23.80213922236616 -2.5717583140973996 47.461765080849375 5.120132473498752" fill="none" stroke="black" stroke-width="0.6%" vector-effect="non-scaling-stroke">
    <path d="M -21.39893 1.06818 L -21.39893 -0.92751 L -19.9738 -1.01961 L -20.58797 -1.06055" />
    <path d="M -19.9738 0.97608 L -19.9738 0.64122" />
    <path d="M -19.9738 -0.59264 L -19.9738 -1.01961" />
    <path d="M -21.39893 1.06818 L -19.9738 0.97608" />
    <path d="M -21.25642 0.06112 A 0.8 0.56882 93.81364 0 1 -20.63315 -0.77394" />
    <path d="M -20.73957 0.82251 A 0.8 0.56882 93.81364 0 1 -21.25642 0.06112" />
    <path d="M -22.80214 0.97464 L -22.80214 -1.02105 L -21.39893 -0.92751" />
    <path d="M -22.80214 0.97464 L -21.39893 1.06818" />
    <path d="M -22.18797 -1.06074 L -22.80214 -1.02105" />
    <path d="M -21.95802 -0.98349 A 0.8 0.05251 360 0 1 -22.18797 -1.02033" />
    <path d="M -20.58797 -1.02033 A 0.8 0.05251 360 0 1 -21.95802 -0.98349" />
    <path d="M -20.90561 0.08451 A 0.8 0.56882 93.81364 0 1 -20.28235 -0.75056 A 0.8 0.56882 93.81364 0 1 -20.38877 0.8459 A 0.8 0.56882 93.81364 0 1 -20.90561 0.08451 Z" />
    <path d="M -21.95802 -1.48241 A 0.8 0.05251 360 0 1 -22.18797 -1.51925 A 0.8 0.05251 360 0 1 -20.58797 -1.51925 A 0.8 0.05251 360 0 1 -21.95802 -1.48241 Z" />
    <path d="M -21.95802 1.51112 A 0.8 0.05251 180 0 0 -20.58797 1.47428" />
    <path d="M -22.18797 1.47428 A 0.8 0.05251 180 0 0 -21.95802 1.51112" />
    <path d="M -7.25722 1.07537 L -7.25722 -0.92032 L -5.83209 -1.01241 L -6.44626 -1.05335" />
    <path d="M -5.83209 0.98327 L -5.83209 0.64841" />
    <path d="M -5.83209 -0.58545 L -5.83209 -1.01241" />
    <path d="M -7.25722 1.07537 L -5.83209 0.98327" />
    <path d="M -7.11471 0.06832 A 0.8 0.56882 93.81364 0 1 -6.49144 -0.76675" />
    <path d="M -6.59786 0.82971 A 0.8 0.56882 93.81364 0 1 -7.11471 0.06832" />
    <path d="M -8.66043 0.98183 L -8.66043 -1.01385 L -7.25722 -0.92032" />
    <path d="M -8.66043 0.98183 L -7.25722 1.07537" />
    <path d="M -8.04626 -1.05354 L -8.66043 -1.01385" />
    <path d="M -7.81631 -0.97629 A 0.8 0.05251 360 0 1 -8.04626 -1.01313" />
    <path d="M -6.44626 -1.01313 A 0.8 0.05251 360 0 1 -7.81631 -0.97629" />
    <path d="M -6.7639 0.0917 A 0.8 0.56882 93.81364 0 1 -6.14064 -0.74337 L -6.49144 -0.76675" />
    <path d="M -6.14064 -0.74337 A 0.8 0.56882 93.81364 0 1 -6.24706 0.85309 L -6.59786 0.82971" />
    <path d="M -6.24706 0.85309 A 0.8 0.56882 93.81364 0 1 -6.7639 0.0917" />
    <path d="M -7.81631 -1.47522 A 0.8 0.05251 360 0 1 -8.04626 -1.51206 L -8.04626 -1.01313" />
    <path d="M -8.04626 -1.51206 A 0.8 0.05251 360 0 1 -6.44626 -1.51206 L -6.44626 -1.01313" />
    <path d="M -6.44626 -1.51206 A 0.8 0.05251 360 0 1 -7.81631 -1.47522" />
    <path d="M -7.81631 1.51832 A 0.8 0.05251 180 0 0 -6.44626 1.48148" />
    <path d="M -8.04626 1.48148 A 0.8 0.05251 180 0 0 -7.81631 1.51832" />
    <path d="M 6.88449 1.08257 L 6.88449 -0.91312 L 8.30963 -1.00522 L 7.69545 -1.04616" />
    <path d="M 8.30963 0.99047 L 8.30963 0.65561" />
    <path d="M 8.30963 -0.57825 L 8.30963 -1.00522" />
    <path d="M 6.88449 1.08257 L 8.30963 0.99047" />
    <path d="M 7.02701 0.07551 A 0.8 0.56882 93.81364 0 1 7.65027 -0.75955" />
    <path d="M 7.54385 0.8369 A 0.8 0.56882 93.81364 0 1 7.02701 0.07551" />
    <path d="M 5.48128 0.98903 L 5.48128 -1.00666 L 6.88449 -0.91312" />
    <path d="M 5.48128 0.98903 L 6.88449 1.08257" />
    <path d="M 6.09545 -1.04635 L 5.48128 -1.00666" />
    <path d="M 6.3254 -0.9691 A 0.8 0.05251 360 0 1 6.09545 -1.00594" />
    <path d="M 7.69545 -1.00594 A 0.8 0.05251 360 0 1 6.3254 -0.9691" />
    <path d="M 7.37781 0.0989 A 0.8 0.56882 93.81364 0 1 8.00107 -0.73617 L 7.65027 -0.75955" />
    <path d="M 8.00107 -0.73617 A 0.8 0.56882 93.81364 0 1 7.89465 0.86029 L 7.54385 0.8369" />
    <path d="M 7.89465 0.86029 A 0.8 0.56882 93.81364 0 1 7.37781 0.0989" />
    <path d="M 6.3254 -1.46802 A 0.8 0.05251 360 0 1 6.09545 -1.50486 L 6.09545 -1.00594" />
    <path d="M 6.09545 -1.50486 A 0.8 0.05251 360 0 1 7.69545 -1.50486 L 7.69545 -1.00594" />
    <path d="M 7.69545 -1.50486 A 0.8 0.05251 360 0 1 6.3254 -1.46802" />
    <path d="M 6.3254 1.52551 A 0.8 0.05251 180 0 0 7.69545 1.48867" />
    <path d="M 6.09545 1.48867 A 0.8 0.05251 180 0 0 6.3254 1.52551" />
    <path d="M 21.0262 1.08976 L 21.0262 -0.90593 L 22.45134 -0.99802 L 21.83717 -1.03896" />
    <path d="M 22.45134 0.99766 L 22.45134 0.6628" />
    <path d="M 22.45134 -0.57105 L 22.45134 -0.99802" />
    <path d="M 21.0262 1.08976 L 22.45134 0.99766" />
    <path d="M 21.16872 0.08271 A 0.8 0.56882 93.81364 0 1 21.79198 -0.75236" />
    <path d="M 21.68556 0.8441 A 0.8 0.56882 93.81364 0 1 21.16872 0.08271" />
    <path d="M 19.62299 0.99622 L 19.62299 -0.99946 L 21.0262 -0.90593" />
    <path d="M 19.62299 0.99622 L 21.0262 1.08976" />
    <path d="M 20.23717 -1.03915 L 19.62299 -0.99946" />
    <path d="M 20.46711 -0.9619 A 0.8 0.05251 360 0 1 20.23717 -0.99874" />
    <path d="M 21.83717 -0.99874 A 0.8 0.05251 360 0 1 20.46711 -0.9619" />
    <path d="M 21.51952 0.10609 A 0.8 0.56882 93.81364 0 1 22.14278 -0.72898 L 21.79198 -0.75236" />
    <path d="M 22.14278 -0.72898 A 0.8 0.56882 93.81364 0 1 22.03636 0.86748 L 21.68556 0.8441" />
    <path d="M 22.03636 0.86748 A 0.8 0.56882 93.81364 0 1 21.51952 0.10609" />
    <path d="M 20.46711 -1.46083 A 0.8 0.05251 360 0 1 20.23717 -1.49767 L 20.23717 -0.99874" />
    <path d="M 20.23717 -1.49767 A 0.8 0.05251 360 0 1 21.83717 -1.49767 L 21.83717 -0.99874" />
    <path d="M 21.83717 -1.49767 A 0.8 0.05251 360 0 1 20.46711 -1.46083" />
    <path d="M 20.46711 1.53271 A 0.8 0.05251 180 0 0 21.83717 1.49587" />
    <path d="M 20.23717 1.49587 A 0.8 0.05251 180 0 0 20.46711 1.53271" />
    <path d="M -20.28235 -0.75056 L -20.63315 -0.77394" />
    <path d="M -20.38877 0.8459 L -20.73957 0.82251" />
    <path d="M -22.18797 -1.51925 L -22.18797 -1.02033" />
    <path d="M -20.58797 -1.51925 L -20.58797 -1.02033" />
    <path d="M -22.18797 1.01558 L -22.18797 1.47428" />
    <path d="M -20.58797 1.01577 L -20.58797 1.47428" />
    <path d="M -8.04626 1.02277 L -8.04626 1.48148" />
    <path d="M -6.44626 1.02296 L -6.44626 1.48148" />
    <path d="M 6.09545 1.02997 L 6.09545 1.48867" />
    <path d="M 7.69545 1.03016 L 7.69545 1.48867" />
    <path d="M 20.23717 1.03716 L 20.23717 1.49587" />
    <path d="M 21.83717 1.03735 L 21.83717 1.49587" />
</svg>