<svg version="1.1" xmlns="http://www.w3.org/2000/svg" viewBox="-66.22988296308726 -2.526035682919418 132.3179618349512 5.043921465617655" fill="none" stroke="black" stroke-width="0.6%" vector-effect="non-scaling-stroke">
    <path d="M -63.81951 1.02421 L -63.81951 -0.97526 L -62.40147 -1.00769 L -63.01567 -1.02188" />
    <path d="M -62.40147 0.99178 L -62.40147 0.63042" />
    <path d="M -62.40147 -0.6139 L -62.40147 -1.00769" />
    <path d="M -63.81951 1.02421 L -62.40147 0.99178" />
    <path d="M -63.6777 0.02123 A 0.8 0.56707 91.32411 0 1 -63.092 -0.79153" />
    <path d="M -63.12897 0.80805 A 0.8 0.56707 91.32411 0 1 -63.6777 0.02123" />
    <path d="M -65.22988 0.99161 L -65.22988 -1.00786 L -63.81951 -0.97526" />
    <path d="M -65.22988 0.99161 L -63.81951 1.02421" />
    <path d="M -64.61567 -1.02191 L -65.22988 -1.00786" />
    <path d="M -64.38289 -0.99481 A 0.8 0.01839 360 0 1 -64.61567 -1.00778" />
    <path d="M -63.01567 -1.00778 A 0.8 0.01839 360 0 1 -64.38289 -0.99481" />
    <path d="M -63.32511 0.02938 A 0.8 0.56707 91.32411 0 1 -62.73941 -0.78338 A 0.8 0.56707 91.32411 0 1 -62.77638 0.8162 A 0.8 0.56707 91.32411 0 1 -63.32511 0.02938 Z" />
    <path d="M -64.38289 -1.49467 A 0.8 0.01839 0 0 1 -64.61567 -1.50764 A 0.8 0.01839 0 1 1 -63.01567 -1.50764 A 0.8 0.01839 0 0 1 -64.38289 -1.49467 Z" />
    <path d="M -64.38289 1.50453 A 0.8 0.01839 180 0 0 -63.01567 1.49156" />
    <path d="M -64.61567 1.49156 A 0.8 0.01839 180 0 0 -64.38289 1.50453" />
    <path d="M -49.67742 1.02509 L -49.67742 -0.97438 L -48.25938 -1.00681 L -48.87359 -1.021" />
    <path d="M -48.25938 0.99267 L -48.25938 0.6313" />
    <path d="M -48.25938 -0.61302 L -48.25938 -1.00681" />
    <path d="M -49.67742 1.02509 L -48.25938 0.99267" />
    <path d="M -49.53562 0.02211 A 0.8 0.56707 91.32411 0 1 -48.94992 -0.79065" />
    <path d="M -48.98689 0.80893 A 0.8 0.56707 91.32411 0 1 -49.53562 0.02211" />
    <path d="M -51.0878 0.99249 L -51.0878 -1.00698 L -49.67742 -0.97438" />
    <path d="M -51.0878 0.99249 L -49.67742 1.02509" />
    <path d="M -50.47359 -1.02103 L -51.0878 -1.00698" />
    <path d="M -50.24081 -0.99393 A 0.8 0.01839 360 0 1 -50.47359 -1.00689" />
    <path d="M -48.87359 -1.00689 A 0.8 0.01839 360 0 1 -50.24081 -0.99393" />
    <path d="M -49.18302 0.03026 A 0.8 0.56707 91.32411 0 1 -48.59732 -0.7825 A 0.8 0.56707 91.32411 0 1 -48.63429 0.81708 A 0.8 0.56707 91.32411 0 1 -49.18302 0.03026 Z" />
    <path d="M -50.24081 -1.49379 A 0.8 0.01839 0 0 1 -50.47359 -1.50676 A 0.8 0.01839 0 1 1 -48.87359 -1.50676 A 0.8 0.01839 0 0 1 -50.24081 -1.49379 Z" />
    <path d="M -50.24081 1.50541 A 0.8 0.01839 180 0 0 -48.87359 1.49244" />
    <path d="M -50.47359 1.49244 A 0.8 0.01839 180 0 0 -50.24081 1.50541" />
    <path d="M -35.53534 1.02597 L -35.53534 -0.9735 L -34.1173 -1.00593 L -34.73151 -1.02012" />
    <path d="M -34.1173 0.99355 L -34.1173 0.63218" />
    <path d="M -34.1173 -0.61214 L -34.1173 -1.00593" />
    <path d="M -35.53534 1.02597 L -34.1173 0.99355" />
    <path d="M -35.39353 0.02299 A 0.8 0.56707 91.32411 0 1 -34.80783 -0.78976" />
    <path d="M -34.8448 0.80981 A 0.8 0.56707 91.32411 0 1 -35.39353 0.02299" />
    <path d="M -36.94571 0.99337 L -36.94571 -1.0061 L -35.53534 -0.9735" />
    <path d="M -36.94571 0.99337 L -35.53534 1.02597" />
    <path d="M -36.33151 -1.02015 L -36.94571 -1.0061" />
    <path d="M -36.09872 -0.99304 A 0.8 0.01839 360 0 1 -36.33151 -1.00601" />
    <path d="M -34.73151 -1.00601 A 0.8 0.01839 360 0 1 -36.09872 -0.99304" />
    <path d="M -35.04094 0.03114 A 0.8 0.56707 91.32411 0 1 -34.45524 -0.78161 A 0.8 0.56707 91.32411 0 1 -34.49221 0.81796 A 0.8 0.56707 91.32411 0 1 -35.04094 0.03114 Z" />
    <path d="M -36.09872 -1.49291 A 0.8 0.01839 0 0 1 -36.33151 -1.50588 A 0.8 0.01839 0 1 1 -34.73151 -1.50588 A 0.8 0.01839 0 0 1 -36.09872 -1.49291 Z" />
    <path d="M -36.09872 1.5063 A 0.8 0.01839 180 0 0 -34.73151 1.49333" />
    <path d="M -36.33151 1.49333 A 0.8 0.01839 180 0 0 -36.09872 1.5063" />
    <path d="M -21.39326 1.02685 L -21.39326 -0.97262 L -19.97521 -1.00504 L -20.58942 -1.01924" />
    <path d="M -19.97521 0.99443 L -19.97521 0.63307" />
    <path d="M -19.97521 -0.61126 L -19.97521 -1.00504" />
    <path d="M -21.39326 1.02685 L -19.97521 0.99443" />
    <path d="M -21.25145 0.02387 A 0.8 0.56707 91.32411 0 1 -20.66575 -0.78888" />
    <path d="M -20.70272 0.81069 A 0.8 0.56707 91.32411 0 1 -21.25145 0.02387" />
    <path d="M -22.80363 0.99425 L -22.80363 -1.00522 L -21.39326 -0.97262" />
    <path d="M -22.80363 0.99425 L -21.39326 1.02685" />
    <path d="M -22.18942 -1.01926 L -22.80363 -1.00522" />
    <path d="M -21.95664 -0.99216 A 0.8 0.01839 360 0 1 -22.18942 -1.00513" />
    <path d="M -20.58942 -1.00513 A 0.8 0.01839 360 0 1 -21.95664 -0.99216" />
    <path d="M -20.89886 0.03202 A 0.8 0.56707 91.32411 0 1 -20.31315 -0.78073 L -20.66575 -0.78888" />
    <path d="M -20.31315 -0.78073 A 0.8 0.56707 91.32411 0 1 -20.35013 0.81884 L -20.70272 0.81069" />
    <path d="M -20.35013 0.81884 A 0.8 0.56707 91.32411 0 1 -20.89886 0.03202" />
    <path d="M -21.95664 -1.49203 A 0.8 0.01839 0 0 1 -22.18942 -1.505 L -22.18942 -1.00513" />
    <path d="M -22.18942 -1.505 A 0.8 0.01839 0 1 1 -20.58942 -1.505 L -20.58942 -1.00513" />
    <path d="M -20.58942 -1.505 A 0.8 0.01839 0 0 1 -21.95664 -1.49203" />
    <path d="M -21.95664 1.50718 A 0.8 0.01839 180 0 0 -20.58942 1.49421" />
    <path d="M -22.18942 1.49421 A 0.8 0.01839 180 0 0 -21.95664 1.50718" />
    <path d="M -7.25117 1.02773 L -7.25117 -0.97174 L -5.83313 -1.00416 L -6.44734 -1.01836" />
    <path d="M -5.83313 0.99531 L -5.83313 0.63395" />
    <path d="M -5.83313 -0.61038 L -5.83313 -1.00416" />
    <path d="M -7.25117 1.02773 L -5.83313 0.99531" />
    <path d="M -7.10937 0.02475 A 0.8 0.56707 91.32411 0 1 -6.52366 -0.788" />
    <path d="M -6.56064 0.81157 A 0.8 0.56707 91.32411 0 1 -7.10937 0.02475" />
    <path d="M -8.66155 0.99513 L -8.66155 -1.00434 L -7.25117 -0.97174" />
    <path d="M -8.66155 0.99513 L -7.25117 1.02773" />
    <path d="M -8.04734 -1.01838 L -8.66155 -1.00434" />
    <path d="M -7.81456 -0.99128 A 0.8 0.01839 360 0 1 -8.04734 -1.00425" />
    <path d="M -6.44734 -1.00425 A 0.8 0.01839 360 0 1 -7.81456 -0.99128" />
    <path d="M -6.75677 0.0329 A 0.8 0.56707 91.32411 0 1 -6.17107 -0.77985 L -6.52366 -0.788" />
    <path d="M -6.17107 -0.77985 A 0.8 0.56707 91.32411 0 1 -6.20804 0.81972 L -6.56064 0.81157" />
    <path d="M -6.20804 0.81972 A 0.8 0.56707 91.32411 0 1 -6.75677 0.0329" />
    <path d="M -7.81456 -1.49115 A 0.8 0.01839 0 0 1 -8.04734 -1.50412 L -8.04734 -1.00425" />
    <path d="M -8.04734 -1.50412 A 0.8 0.01839 0 1 1 -6.44734 -1.50412 L -6.44734 -1.00425" />
    <path d="M -6.44734 -1.50412 A 0.8 0.01839 0 0 1 -7.81456 -1.49115" />
    <path d="M -7.81456 1.50806 A 0.8 0.01839 180 0 0 -6.44734 1.49509" />
    <path d="M -8.04734 1.49509 A 0.8 0.01839 180 0 0 -7.81456 1.50806" />
    <path d="M 6.89091 1.02861 L 6.89091 -0.97086 L 8.30895 -1.00328 L 7.69474 -1.01748" />
    <path d="M 8.30895 0.99619 L 8.30895 0.63483" />
    <path d="M 8.30895 -0.6095 L 8.30895 -1.00328" />
    <path d="M 6.89091 1.02861 L 8.30895 0.99619" />
    <path d="M 7.03272 0.02563 A 0.8 0.56707 91.32411 0 1 7.61842 -0.78712" />
    <path d="M 7.58145 0.81245 A 0.8 0.56707 91.32411 0 1 7.03272 0.02563" />
    <path d="M 5.48054 0.99601 L 5.48054 -1.00346 L 6.89091 -0.97086" />
    <path d="M 5.48054 0.99601 L 6.89091 1.02861" />
    <path d="M 6.09474 -1.0175 L 5.48054 -1.00346" />
    <path d="M 6.32753 -0.9904 A 0.8 0.01839 360 0 1 6.09474 -1.00337" />
    <path d="M 7.69474 -1.00337 A 0.8 0.01839 360 0 1 6.32753 -0.9904" />
    <path d="M 7.38531 0.03378 A 0.8 0.56707 91.32411 0 1 7.97101 -0.77897 L 7.61842 -0.78712" />
    <path d="M 7.97101 -0.77897 A 0.8 0.56707 91.32411 0 1 7.93404 0.8206 L 7.58145 0.81245" />
    <path d="M 7.93404 0.8206 A 0.8 0.56707 91.32411 0 1 7.38531 0.03378" />
    <path d="M 6.32753 -1.49027 A 0.8 0.01839 0 0 1 6.09474 -1.50324 L 6.09474 -1.00337" />
    <path d="M 6.09474 -1.50324 A 0.8 0.01839 0 1 1 7.69474 -1.50324 L 7.69474 -1.00337" />
    <path d="M 7.69474 -1.50324 A 0.8 0.01839 0 0 1 6.32753 -1.49027" />
    <path d="M 6.32753 1.50894 A 0.8 0.01839 180 0 0 7.69474 1.49597" />
    <path d="M 6.09474 1.49597 A 0.8 0.01839 180 0 0 6.32753 1.50894" />
    <path d="M 21.033 1.02949 L 21.033 -0.96998 L 22.45104 -1.0024 L 21.83683 -1.0166" />
    <path d="M 22.45104 0.99707 L 22.45104 0.63571" />
    <path d="M 22.45104 -0.60862 L 22.45104 -1.0024" />
    <path d="M 21.033 1.02949 L 22.45104 0.99707" />
    <path d="M 21.1748 0.02652 A 0.8 0.56707 91.32411 0 1 21.7605 -0.78624" />
    <path d="M 21.72353 0.81333 A 0.8 0.56707 91.32411 0 1 21.1748 0.02652" />
    <path d="M 19.62262 0.99689 L 19.62262 -1.00258 L 21.033 -0.96998" />
    <path d="M 19.62262 0.99689 L 21.033 1.02949" />
    <path d="M 20.23683 -1.01662 L 19.62262 -1.00258" />
    <path d="M 20.46961 -0.98952 A 0.8 0.01839 360 0 1 20.23683 -1.00249" />
    <path d="M 21.83683 -1.00249 A 0.8 0.01839 360 0 1 20.46961 -0.98952" />
    <path d="M 21.52739 0.03467 A 0.8 0.56707 91.32411 0 1 22.1131 -0.77809 L 21.7605 -0.78624" />
    <path d="M 22.1131 -0.77809 A 0.8 0.56707 91.32411 0 1 22.07612 0.82148 L 21.72353 0.81333" />
    <path d="M 22.07612 0.82148 A 0.8 0.56707 91.32411 0 1 21.52739 0.03467" />
    <path d="M 20.46961 -1.48939 A 0.8 0.01839 0 0 1 20.23683 -1.50236 L 20.23683 -1.00249" />
    <path d="M 20.23683 -1.50236 A 0.8 0.01839 0 1 1 21.83683 -1.50236 L 21.83683 -1.00249" />
    <path d="M 21.83683 -1.50236 A 0.8 0.01839 0 0 1 20.46961 -1.48939" />
    <path d="M 20.46961 1.50982 A 0.8 0.01839 180 0 0 21.83683 1.49685" />
    <path d="M 20.23683 1.49685 A 0.8 0.01839 180 0 0 20.46961 1.50982" />
    <path d="M 35.17508 1.03037 L 35.17508 -0.9691 L 36.59312 -1.00152 L 35.97891 -1.01572" />
    <path d="M 36.59312 0.99795 L 36.59312 0.63659" />
    <path d="M 36.59312 -0.60773 L 36.59312 -1.00152" />
    <path d="M 35.17508 1.03037 L 36.59312 0.99795" />
    <path d="M 35.31688 0.0274 A 0.8 0.56707 91.32411 0 1 35.90259 -0.78536" />
    <path d="M 35.86561 0.81421 A 0.8 0.56707 91.32411 0 1 35.31688 0.0274" />
    <path d="M 33.7647 0.99778 L 33.7647 -1.0017 L 35.17508 -0.9691" />
    <path d="M 33.7647 0.99778 L 35.17508 1.03037" />
    <path d="M 34.37891 -1.01574 L 33.7647 -1.0017" />
    <path d="M 34.6117 -0.98864 A 0.8 0.01839 360 0 1 34.37891 -1.00161" />
    <path d="M 35.97891 -1.00161 A 0.8 0.01839 360 0 1 34.6117 -0.98864" />
    <path d="M 35.66948 0.03555 A 0.8 0.56707 91.32411 0 1 36.25518 -0.77721 L 35.90259 -0.78536" />
    <path d="M 36.25518 -0.77721 A 0.8 0.56707 91.32411 0 1 36.21821 0.82236 L 35.86561 0.81421" />
    <path d="M 36.21821 0.82236 A 0.8 0.56707 91.32411 0 1 35.66948 0.03555" />
    <path d="M 34.6117 -1.48851 A 0.8 0.01839 0 0 1 34.37891 -1.50148 L 34.37891 -1.00161" />
    <path d="M 34.37891 -1.50148 A 0.8 0.01839 0 1 1 35.97891 -1.50148 L 35.97891 -1.00161" />
    <path d="M 35.97891 -1.50148 A 0.8 0.01839 0 0 1 34.6117 -1.48851" />
    <path d="M 34.6117 1.5107 A 0.8 0.01839 180 0 0 35.97891 1.49773" />
    <path d="M 34.37891 1.49773 A 0.8 0.01839 180 0 0 34.6117 1.5107" />
    <path d="M 49.31716 1.03126 L 49.31716 -0.96822 L 50.7352 -1.00064 L 50.121 -1.01484" />
    <path d="M 50.7352 0.99883 L 50.7352 0.63747" />
    <path d="M 50.7352 -0.60685 L 50.7352 -1.00064" />
    <path d="M 49.31716 1.03126 L 50.7352 0.99883" />
    <path d="M 49.45897 0.02828 A 0.8 0.56707 91.32411 0 1 50.04467 -0.78448" />
    <path d="M 50.0077 0.81509 A 0.8 0.56707 91.32411 0 1 49.45897 0.02828" />
    <path d="M 47.90679 0.99866 L 47.90679 -1.00082 L 49.31716 -0.96822" />
    <path d="M 47.90679 0.99866 L 49.31716 1.03126" />
    <path d="M 48.521 -1.01486 L 47.90679 -1.00082" />
    <path d="M 48.75378 -0.98776 A 0.8 0.01839 360 0 1 48.521 -1.00073" />
    <path d="M 50.121 -1.00073 A 0.8 0.01839 360 0 1 48.75378 -0.98776" />
    <path d="M 49.81156 0.03643 A 0.8 0.56707 91.32411 0 1 50.39726 -0.77633 L 50.04467 -0.78448" />
    <path d="M 50.39726 -0.77633 A 0.8 0.56707 91.32411 0 1 50.36029 0.82324 L 50.0077 0.81509" />
    <path d="M 50.36029 0.82324 A 0.8 0.56707 91.32411 0 1 49.81156 0.03643" />
    <path d="M 48.75378 -1.48763 A 0.8 0.01839 0 0 1 48.521 -1.50059 L 48.521 -1.00073" />
    <path d="M 48.521 -1.50059 A 0.8 0.01839 0 1 1 50.121 -1.50059 L 50.121 -1.00073" />
    <path d="M 50.121 -1.50059 A 0.8 0.01839 0 0 1 48.75378 -1.48763" />
    <path d="M 48.75378 1.51158 A 0.8 0.01839 180 0 0 50.121 1.49861" />
    <path d="M 48.521 1.49861 A 0.8 0.01839 180 0 0 48.75378 1.51158" />
    <path d="M 63.45925 1.03214 L 63.45925 -0.96733 L 64.87729 -0.99976 L 64.26308 -1.01395" />
    <path d="M 64.87729 0.99971 L 64.87729 0.63835" />
    <path d="M 64.87729 -0.60597 L 64.87729 -0.99976" />
    <path d="M 63.45925 1.03214 L 64.87729 0.99971" />
    <path d="M 63.60105 0.02916 A 0.8 0.56707 91.32411 0 1 64.18675 -0.7836" />
    <path d="M 64.14978 0.81598 A 0.8 0.56707 91.32411 0 1 63.60105 0.02916" />
    <path d="M 62.04887 0.99954 L 62.04887 -0.99993 L 63.45925 -0.96733" />
    <path d="M 62.04887 0.99954 L 63.45925 1.03214" />
    <path d="M 62.66308 -1.01398 L 62.04887 -0.99993" />
    <path d="M 62.89586 -0.98688 A 0.8 0.01839 360 0 1 62.66308 -0.99985" />
    <path d="M 64.26308 -0.99985 A 0.8 0.01839 360 0 1 62.89586 -0.98688" />
    <path d="M 63.95365 0.03731 A 0.8 0.56707 91.32411 0 1 64.53935 -0.77545 L 64.18675 -0.7836" />
    <path d="M 64.53935 -0.77545 A 0.8 0.56707 91.32411 0 1 64.50238 0.82413 L 64.14978 0.81598" />
    <path d="M 64.50238 0.82413 A 0.8 0.56707 91.32411 0 1 63.95365 0.03731" />
    <path d="M 62.89586 -1.48674 A 0.8 0.01839 0 0 1 62.66308 -1.49971 L 62.66308 -0.99985" />
    <path d="M 62.66308 -1.49971 A 0.8 0.01839 0 1 1 64.26308 -1.49971 L 64.26308 -0.99985" />
    <path d="M 64.26308 -1.49971 A 0.8 0.01839 0 0 1 62.89586 -1.48674" />
    <path d="M 62.89586 1.51246 A 0.8 0.01839 180 0 0 64.26308 1.49949" />
    <path d="M 62.66308 1.49949 A 0.8 0.01839 180 0 0 62.89586 1.51246" />
    <path d="M -62.73941 -0.78338 L -63.092 -0.79153" />
    <path d="M -62.77638 0.8162 L -63.12897 0.80805" />
    <path d="M -64.61567 -1.50764 L -64.61567 -1.00778" />
    <path d="M -63.01567 -1.50764 L -63.01567 -1.00778" />
    <path d="M -64.61567 1.0058 L -64.61567 1.49156" />
    <path d="M -63.01567 1.00583 L -63.01567 1.49156" />
    <path d="M -48.59732 -0.7825 L -48.94992 -0.79065" />
    <path d="M -48.63429 0.81708 L -48.98689 0.80893" />
    <path d="M -50.47359 -1.50676 L -50.47359 -1.00689" />
    <path d="M -48.87359 -1.50676 L -48.87359 -1.00689" />
    <path d="M -50.47359 1.00669 L -50.47359 1.49244" />
    <path d="M -48.87359 1.00671 L -48.87359 1.49244" />
    <path d="M -34.45524 -0.78161 L -34.80783 -0.78976" />
    <path d="M -34.49221 0.81796 L -34.8448 0.80981" />
    <path d="M -36.33151 -1.50588 L -36.33151 -1.00601" />
    <path d="M -34.73151 -1.50588 L -34.73151 -1.00601" />
    <path d="M -36.33151 1.00757 L -36.33151 1.49333" />
    <path d="M -34.73151 1.00759 L -34.73151 1.49333" />
    <path d="M -22.18942 1.00845 L -22.18942 1.49421" />
    <path d="M -20.58942 1.00847 L -20.58942 1.49421" />
    <path d="M -8.04734 1.00933 L -8.04734 1.49509" />
    <path d="M -6.44734 1.00935 L -6.44734 1.49509" />
    <path d="M 6.09474 1.01021 L 6.09474 1.49597" />
    <path d="M 7.69474 1.01023 L 7.69474 1.49597" />
    <path d="M 20.23683 1.01109 L 20.23683 1.49685" />
    <path d="M 21.83683 1.01111 L 21.83683 1.49685" />
    <path d="M 34.37891 1.01197 L 34.37891 1.49773" />
    <path d="M 35.97891 1.012 L 35.97891 1.49773" />
    <path d="M 48.521 1.01285 L 48.521 1.49861" />
    <path d="M 50.121 1.01288 L 50.121 1.49861" />
    <path d="M 62.66308 1.01373 L 62.66308 1.49949" />
    <path d="M 64.26308 1.01376 L 64.26308 1.49949" />
</svg>