<svg version="1.1" xmlns="http://www.w3.org/2000/svg" viewBox="-7.938596387683768 -3.939542207211497 15.811110913714298 7.851056972172342" fill="none" stroke="black" stroke-width="0.6%" vector-effect="non-scaling-stroke">
    <path d="M -6.40994 -1.30664 A 0.8 0.79171 112.98336 0 1 -5.30459 -2.04911 A 0.8 0.79171 112.98336 0 1 -5.92933 -0.57612 A 0.8 0.79171 112.98336 0 1 -6.40994 -1.30664 Z" />
    <path d="M -6.47602 -1.33467 A 0.8 0.79171 292.98336 0 0 -5.99541 -0.60415" />
    <path d="M -5.37067 -2.07714 A 0.8 0.79171 292.98336 0 0 -6.47602 -1.33467" />
    <path d="M -6.67427 -0.33477 L -6.67427 -2.33157 L -4.69181 -2.34652 L -4.95614 -2.45863 L -5.0152 -2.45818" />
    <path d="M -4.69181 -0.34972 L -4.69181 -2.34652" />
    <path d="M -6.67427 -0.33477 L -4.69181 -0.34972" />
    <path d="M -6.9386 -0.44688 L -6.9386 -2.44368 L -6.67427 -2.33157" />
    <path d="M -6.9386 -0.44688 L -6.67427 -0.33477" />
    <path d="M -6.6152 -2.44612 L -6.9386 -2.44368" />
    <path d="M -6.60819 -2.38912 A 0.8 0.04524 360 0 1 -6.6152 -2.3951" />
    <path d="M -5.0152 -2.3951 A 0.8 0.04524 360 0 1 -6.60819 -2.38912" />
    <path d="M -6.60819 -2.88832 A 0.8 0.04524 360 0 1 -6.6152 -2.8943 A 0.8 0.04524 360 0 1 -5.0152 -2.8943 A 0.8 0.04524 360 0 1 -6.60819 -2.88832 Z" />
    <path d="M -6.60819 0.10688 A 0.8 0.04524 180 0 0 -5.0152 0.1009" />
    <path d="M -6.6152 0.1009 A 0.8 0.04524 180 0 0 -6.60819 0.10688" />
    <path d="M -4.09708 -0.75356 A 0.8 0.79171 112.98336 0 1 -2.99172 -1.49604 A 0.8 0.79171 112.98336 0 1 -3.61646 -0.02305 A 0.8 0.79171 112.98336 0 1 -4.09708 -0.75356 Z" />
    <path d="M -4.16316 -0.78159 A 0.8 0.79171 292.98336 0 0 -3.68255 -0.05108" />
    <path d="M -3.0578 -1.52407 A 0.8 0.79171 292.98336 0 0 -4.16316 -0.78159" />
    <path d="M -4.3614 0.2183 L -4.3614 -1.7785 L -2.37895 -1.79344 L -2.64327 -1.90555 L -2.70234 -1.90511" />
    <path d="M -2.37895 0.20335 L -2.37895 -1.79344" />
    <path d="M -4.3614 0.2183 L -2.37895 0.20335" />
    <path d="M -4.62573 0.10619 L -4.62573 -1.89061 L -4.3614 -1.7785" />
    <path d="M -4.62573 0.10619 L -4.3614 0.2183" />
    <path d="M -4.30234 -1.89305 L -4.62573 -1.89061" />
    <path d="M -4.29532 -1.83605 A 0.8 0.04524 360 0 1 -4.30234 -1.84203" />
    <path d="M -2.70234 -1.84203 A 0.8 0.04524 360 0 1 -4.29532 -1.83605" />
    <path d="M -4.29532 -2.33525 A 0.8 0.04524 360 0 1 -4.30234 -2.34123 A 0.8 0.04524 360 0 1 -2.70234 -2.34123 A 0.8 0.04524 360 0 1 -4.29532 -2.33525 Z" />
    <path d="M -4.29532 0.65995 A 0.8 0.04524 180 0 0 -2.70234 0.65397" />
    <path d="M -4.30234 0.65397 A 0.8 0.04524 180 0 0 -4.29532 0.65995" />
    <path d="M -1.78421 -0.20049 A 0.8 0.79171 112.98336 0 1 -0.67886 -0.94296 A 0.8 0.79171 112.98336 0 1 -1.3036 0.53003 A 0.8 0.79171 112.98336 0 1 -1.78421 -0.20049 Z" />
    <path d="M -1.85029 -0.22852 A 0.8 0.79171 292.98336 0 0 -1.36968 0.502" />
    <path d="M -0.74494 -0.97099 A 0.8 0.79171 292.98336 0 0 -1.85029 -0.22852" />
    <path d="M -2.04854 0.77138 L -2.04854 -1.22542 L -0.06608 -1.24037 L -0.33041 -1.35248 L -0.38947 -1.35203" />
    <path d="M -0.06608 0.75643 L -0.06608 -1.24037" />
    <path d="M -2.04854 0.77138 L -0.06608 0.75643" />
    <path d="M -2.31287 0.65927 L -2.31287 -1.33753 L -2.04854 -1.22542" />
    <path d="M -2.31287 0.65927 L -2.04854 0.77138" />
    <path d="M -1.98947 -1.33997 L -2.31287 -1.33753" />
    <path d="M -1.98246 -1.28297 A 0.8 0.04524 360 0 1 -1.98947 -1.28895" />
    <path d="M -0.38947 -1.28895 A 0.8 0.04524 360 0 1 -1.98246 -1.28297" />
    <path d="M -1.98246 -1.78217 A 0.8 0.04524 360 0 1 -1.98947 -1.78815 L -1.98947 -1.28895" />
    <path d="M -1.98947 -1.78815 A 0.8 0.04524 360 0 1 -0.38947 -1.78815 L -0.38947 -1.28895" />
    <path d="M -0.38947 -1.78815 A 0.8 0.04524 360 0 1 -1.98246 -1.78217" />
    <path d="M -1.98246 1.21303 A 0.8 0.04524 180 0 0 -0.38947 1.20705" />
    <path d="M -1.98947 1.20705 A 0.8 0.04524 180 0 0 -1.98246 1.21303" />
    <path d="M 0.52865 0.35259 A 0.8 0.79171 112.98336 0 1 1.63401 -0.38989 L 1.56793 -0.41792 A 0.8 0.79171 292.98336 0 0 0.46257 0.32456 A 0.8 0.79171 292.98336 0 0 0.94318 1.05507" />
    <path d="M 1.63401 -0.38989 A 0.8 0.79171 112.98336 0 1 1.00927 1.0831 L 0.94318 1.05507" />
    <path d="M 1.00927 1.0831 A 0.8 0.79171 112.98336 0 1 0.52865 0.35259" />
    <path d="M 0.26433 1.32445 L 0.26433 -0.67235 L 2.24678 -0.6873 L 1.98246 -0.7994 L 1.92339 -0.79896" />
    <path d="M 2.24678 1.3095 L 2.24678 -0.6873" />
    <path d="M 0.26433 1.32445 L 2.24678 1.3095" />
    <path d="M 0 1.21234 L 0 -0.78446 L 0.26433 -0.67235" />
    <path d="M 0 1.21234 L 0.26433 1.32445" />
    <path d="M 0.32339 -0.7869 L 0 -0.78446" />
    <path d="M 0.33041 -0.7299 A 0.8 0.04524 360 0 1 0.32339 -0.73588" />
    <path d="M 1.92339 -0.73588 A 0.8 0.04524 360 0 1 0.33041 -0.7299" />
    <path d="M 0.33041 -1.2291 A 0.8 0.04524 360 0 1 0.32339 -1.23508 L 0.32339 -0.73588" />
    <path d="M 0.32339 -1.23508 A 0.8 0.04524 360 0 1 1.92339 -1.23508 L 1.92339 -0.73588" />
    <path d="M 1.92339 -1.23508 A 0.8 0.04524 360 0 1 0.33041 -1.2291" />
    <path d="M 0.33041 1.7661 A 0.8 0.04524 180 0 0 1.92339 1.76012" />
    <path d="M 0.32339 1.76012 A 0.8 0.04524 180 0 0 0.33041 1.7661" />
    <path d="M 2.84152 0.90566 A 0.8 0.79171 112.98336 0 1 3.94687 0.16319 L 3.88079 0.13516 A 0.8 0.79171 292.98336 0 0 2.77544 0.87763 A 0.8 0.79171 292.98336 0 0 3.25605 1.60815" />
    <path d="M 3.94687 0.16319 A 0.8 0.79171 112.98336 0 1 3.32213 1.63618 L 3.25605 1.60815" />
    <path d="M 3.32213 1.63618 A 0.8 0.79171 112.98336 0 1 2.84152 0.90566" />
    <path d="M 2.57719 1.87753 L 2.57719 -0.11927 L 4.55965 -0.13422 L 4.29532 -0.24633 L 4.23626 -0.24588" />
    <path d="M 4.55965 1.86258 L 4.55965 -0.13422" />
    <path d="M 2.57719 1.87753 L 4.55965 1.86258" />
    <path d="M 2.31287 1.76542 L 2.31287 -0.23138 L 2.57719 -0.11927" />
    <path d="M 2.31287 1.76542 L 2.57719 1.87753" />
    <path d="M 2.63626 -0.23382 L 2.31287 -0.23138" />
    <path d="M 2.64327 -0.17682 A 0.8 0.04524 360 0 1 2.63626 -0.1828" />
    <path d="M 4.23626 -0.1828 A 0.8 0.04524 360 0 1 2.64327 -0.17682" />
    <path d="M 2.64327 -0.67602 A 0.8 0.04524 360 0 1 2.63626 -0.682 L 2.63626 -0.1828" />
    <path d="M 2.63626 -0.682 A 0.8 0.04524 360 0 1 4.23626 -0.682 L 4.23626 -0.1828" />
    <path d="M 4.23626 -0.682 A 0.8 0.04524 360 0 1 2.64327 -0.67602" />
    <path d="M 2.64327 2.31918 A 0.8 0.04524 180 0 0 4.23626 2.3132" />
    <path d="M 2.63626 2.3132 A 0.8 0.04524 180 0 0 2.64327 2.31918" />
    <path d="M 5.15439 1.45873 A 0.8 0.79171 112.98336 0 1 6.25974 0.71626 L 6.19366 0.68823 A 0.8 0.79171 292.98336 0 0 5.0883 1.43071 A 0.8 0.79171 292.98336 0 0 5.56891 2.16122" />
    <path d="M 6.25974 0.71626 A 0.8 0.79171 112.98336 0 1 5.635 2.18925 L 5.56891 2.16122" />
    <path d="M 5.635 2.18925 A 0.8 0.79171 112.98336 0 1 5.15439 1.45873" />
    <path d="M 4.89006 2.4306 L 4.89006 0.4338 L 6.87251 0.41885 L 6.60819 0.30674 L 6.54912 0.30719" />
    <path d="M 6.87251 2.41565 L 6.87251 0.41885" />
    <path d="M 4.89006 2.4306 L 6.87251 2.41565" />
    <path d="M 4.62573 2.31849 L 4.62573 0.32169 L 4.89006 0.4338" />
    <path d="M 4.62573 2.31849 L 4.89006 2.4306" />
    <path d="M 4.94912 0.31925 L 4.62573 0.32169" />
    <path d="M 4.95614 0.37625 A 0.8 0.04524 360 0 1 4.94912 0.37027" />
    <path d="M 6.54912 0.37027 A 0.8 0.04524 360 0 1 4.95614 0.37625" />
    <path d="M 4.95614 -0.12295 A 0.8 0.04524 360 0 1 4.94912 -0.12893 L 4.94912 0.37027" />
    <path d="M 4.94912 -0.12893 A 0.8 0.04524 360 0 1 6.54912 -0.12893 L 6.54912 0.37027" />
    <path d="M 6.54912 -0.12893 A 0.8 0.04524 360 0 1 4.95614 -0.12295" />
    <path d="M 4.95614 2.87225 A 0.8 0.04524 180 0 0 6.54912 2.86627" />
    <path d="M 4.94912 2.86627 A 0.8 0.04524 180 0 0 4.95614 2.87225" />
    <path d="M -5.30459 -2.04911 L -5.37067 -2.07714" />
    <path d="M -5.92933 -0.57612 L -5.99541 -0.60415" />
    <path d="M -6.6152 -2.8943 L -6.6152 -2.3951" />
    <path d="M -5.0152 -2.8943 L -5.0152 -2.3951" />
    <path d="M -6.6152 -0.33522 L -6.6152 0.1009" />
    <path d="M -5.0152 -0.34728 L -5.0152 0.1009" />
    <path d="M -2.99172 -1.49604 L -3.0578 -1.52407" />
    <path d="M -3.61646 -0.02305 L -3.68255 -0.05108" />
    <path d="M -4.30234 -2.34123 L -4.30234 -1.84203" />
    <path d="M -2.70234 -2.34123 L -2.70234 -1.84203" />
    <path d="M -4.30234 0.21786 L -4.30234 0.65397" />
    <path d="M -2.70234 0.20579 L -2.70234 0.65397" />
    <path d="M -0.67886 -0.94296 L -0.74494 -0.97099" />
    <path d="M -1.3036 0.53003 L -1.36968 0.502" />
    <path d="M -1.98947 0.77093 L -1.98947 1.20705" />
    <path d="M -0.38947 0.75887 L -0.38947 1.20705" />
    <path d="M 0.32339 1.32401 L 0.32339 1.76012" />
    <path d="M 1.92339 1.31194 L 1.92339 1.76012" />
    <path d="M 2.63626 1.87708 L 2.63626 2.3132" />
    <path d="M 4.23626 1.86502 L 4.23626 2.3132" />
    <path d="M 4.94912 2.43016 L 4.94912 2.86627" />
    <path d="M 6.54912 2.41809 L 6.54912 2.86627" />
</svg>