<svg version="1.1" xmlns="http://www.w3.org/2000/svg" viewBox="-30.873693513263834 -2.555538641289363 61.60513134789707 5.09324385242351" fill="none" stroke="black" stroke-width="0.6%" vector-effect="non-scaling-stroke">
    <path d="M -28.46787 1.05235 L -28.46787 -0.94514 L -27.04531 -1.01563 L -27.6595 -1.0468" />
    <path d="M -27.04531 0.98185 L -27.04531 0.63733" />
    <path d="M -27.04531 -0.6006 L -27.04531 -1.01563" />
    <path d="M -28.46787 1.05235 L -27.04531 0.98185" />
    <path d="M -28.32562 0.04656 A 0.8 0.56831 92.90479 0 1 -27.71605 -0.78061" />
    <path d="M -27.79713 0.81733 A 0.8 0.56831 92.90479 0 1 -28.32562 0.04656" />
    <path d="M -29.87369 0.98101 L -29.87369 -1.01647 L -28.46787 -0.94514" />
    <path d="M -29.87369 0.98101 L -28.46787 1.05235" />
    <path d="M -29.2595 -1.04691 L -29.87369 -1.01647" />
    <path d="M -29.02853 -0.98785 A 0.8 0.04012 360 0 1 -29.2595 -1.01605" />
    <path d="M -27.6595 -1.01605 A 0.8 0.04012 360 0 1 -29.02853 -0.98785" />
    <path d="M -27.97416 0.06439 A 0.8 0.56831 92.90479 0 1 -27.3646 -0.76278 A 0.8 0.56831 92.90479 0 1 -27.44568 0.83516 A 0.8 0.56831 92.90479 0 1 -27.97416 0.06439 Z" />
    <path d="M -29.02853 -1.48722 A 0.8 0.04012 0 0 1 -29.2595 -1.51542 A 0.8 0.04012 0 0 1 -27.6595 -1.51542 A 0.8 0.04012 0 0 1 -29.02853 -1.48722 Z" />
    <path d="M -29.02853 1.509 A 0.8 0.04012 180 0 0 -27.6595 1.4808" />
    <path d="M -29.2595 1.4808 A 0.8 0.04012 180 0 0 -29.02853 1.509" />
    <path d="M -14.32598 1.05654 L -14.32598 -0.94094 L -12.90343 -1.01144 L -13.51762 -1.0426" />
    <path d="M -12.90343 0.98605 L -12.90343 0.64152" />
    <path d="M -12.90343 -0.59641 L -12.90343 -1.01144" />
    <path d="M -14.32598 1.05654 L -12.90343 0.98605" />
    <path d="M -14.18373 0.05075 A 0.8 0.56831 92.90479 0 1 -13.57416 -0.77642" />
    <path d="M -13.65525 0.82153 A 0.8 0.56831 92.90479 0 1 -14.18373 0.05075" />
    <path d="M -15.7318 0.98521 L -15.7318 -1.01227 L -14.32598 -0.94094" />
    <path d="M -15.7318 0.98521 L -14.32598 1.05654" />
    <path d="M -15.11762 -1.04271 L -15.7318 -1.01227" />
    <path d="M -14.88664 -0.98366 A 0.8 0.04012 360 0 1 -15.11762 -1.01185" />
    <path d="M -13.51762 -1.01185 A 0.8 0.04012 360 0 1 -14.88664 -0.98366" />
    <path d="M -13.83227 0.06859 A 0.8 0.56831 92.90479 0 1 -13.22271 -0.75858 A 0.8 0.56831 92.90479 0 1 -13.30379 0.83936 A 0.8 0.56831 92.90479 0 1 -13.83227 0.06859 Z" />
    <path d="M -14.88664 -1.48303 A 0.8 0.04012 0 0 1 -15.11762 -1.51123 A 0.8 0.04012 0 0 1 -13.51762 -1.51123 L -13.51762 -1.01185" />
    <path d="M -13.51762 -1.51123 A 0.8 0.04012 0 0 1 -14.88664 -1.48303" />
    <path d="M -14.88664 1.5132 A 0.8 0.04012 180 0 0 -13.51762 1.485" />
    <path d="M -15.11762 1.485 A 0.8 0.04012 180 0 0 -14.88664 1.5132" />
    <path d="M -0.1841 1.06074 L -0.1841 -0.93674 L 1.23846 -1.00724 L 0.62427 -1.0384" />
    <path d="M 1.23846 0.99024 L 1.23846 0.64572" />
    <path d="M 1.23846 -0.59221 L 1.23846 -1.00724" />
    <path d="M -0.1841 1.06074 L 1.23846 0.99024" />
    <path d="M -0.04184 0.05495 A 0.8 0.56831 92.90479 0 1 0.56772 -0.77222" />
    <path d="M 0.48664 0.82572 A 0.8 0.56831 92.90479 0 1 -0.04184 0.05495" />
    <path d="M -1.58992 0.98941 L -1.58992 -1.00808 L -0.1841 -0.93674" />
    <path d="M -1.58992 0.98941 L -0.1841 1.06074" />
    <path d="M -0.97573 -1.03851 L -1.58992 -1.00808" />
    <path d="M -0.74475 -0.97946 A 0.8 0.04012 360 0 1 -0.97573 -1.00766" />
    <path d="M 0.62427 -1.00766 A 0.8 0.04012 360 0 1 -0.74475 -0.97946" />
    <path d="M 0.30962 0.07278 A 0.8 0.56831 92.90479 0 1 0.91918 -0.75439 L 0.56772 -0.77222" />
    <path d="M 0.91918 -0.75439 A 0.8 0.56831 92.90479 0 1 0.8381 0.84356 L 0.48664 0.82572" />
    <path d="M 0.8381 0.84356 A 0.8 0.56831 92.90479 0 1 0.30962 0.07278" />
    <path d="M -0.74475 -1.47883 A 0.8 0.04012 0 0 1 -0.97573 -1.50703 L -0.97573 -1.00766" />
    <path d="M -0.97573 -1.50703 A 0.8 0.04012 0 0 1 0.62427 -1.50703 L 0.62427 -1.00766" />
    <path d="M 0.62427 -1.50703 A 0.8 0.04012 0 0 1 -0.74475 -1.47883" />
    <path d="M -0.74475 1.51739 A 0.8 0.04012 180 0 0 0.62427 1.4892" />
    <path d="M -0.97573 1.4892 A 0.8 0.04012 180 0 0 -0.74475 1.51739" />
    <path d="M 13.95779 1.06494 L 13.95779 -0.93255 L 15.38035 -1.00304 L 14.76616 -1.03421" />
    <path d="M 15.38035 0.99444 L 15.38035 0.64991" />
    <path d="M 15.38035 -0.58802 L 15.38035 -1.00304" />
    <path d="M 13.95779 1.06494 L 15.38035 0.99444" />
    <path d="M 14.10005 0.05914 A 0.8 0.56831 92.90479 0 1 14.70961 -0.76803" />
    <path d="M 14.62853 0.82992 A 0.8 0.56831 92.90479 0 1 14.10005 0.05914" />
    <path d="M 12.55197 0.9936 L 12.55197 -1.00388 L 13.95779 -0.93255" />
    <path d="M 12.55197 0.9936 L 13.95779 1.06494" />
    <path d="M 13.16616 -1.03432 L 12.55197 -1.00388" />
    <path d="M 13.39714 -0.97526 A 0.8 0.04012 360 0 1 13.16616 -1.00346" />
    <path d="M 14.76616 -1.00346 A 0.8 0.04012 360 0 1 13.39714 -0.97526" />
    <path d="M 14.4515 0.07698 A 0.8 0.56831 92.90479 0 1 15.06107 -0.75019 L 14.70961 -0.76803" />
    <path d="M 15.06107 -0.75019 A 0.8 0.56831 92.90479 0 1 14.97998 0.84775 L 14.62853 0.82992" />
    <path d="M 14.97998 0.84775 A 0.8 0.56831 92.90479 0 1 14.4515 0.07698" />
    <path d="M 13.39714 -1.47464 A 0.8 0.04012 0 0 1 13.16616 -1.50283 L 13.16616 -1.00346" />
    <path d="M 13.16616 -1.50283 A 0.8 0.04012 0 0 1 14.76616 -1.50283 L 14.76616 -1.00346" />
    <path d="M 14.76616 -1.50283 A 0.8 0.04012 0 0 1 13.39714 -1.47464" />
    <path d="M 13.39714 1.52159 A 0.8 0.04012 180 0 0 14.76616 1.49339" />
    <path d="M 13.16616 1.49339 A 0.8 0.04012 180 0 0 13.39714 1.52159" />
    <path d="M 28.09968 1.06913 L 28.09968 -0.92835 L 29.52224 -0.99885 L 28.90805 -1.03001" />
    <path d="M 29.52224 0.99864 L 29.52224 0.65411" />
    <path d="M 29.52224 -0.58382 L 29.52224 -0.99885" />
    <path d="M 28.09968 1.06913 L 29.52224 0.99864" />
    <path d="M 28.24194 0.06334 A 0.8 0.56831 92.90479 0 1 28.8515 -0.76383" />
    <path d="M 28.77042 0.83411 A 0.8 0.56831 92.90479 0 1 28.24194 0.06334" />
    <path d="M 26.69386 0.9978 L 26.69386 -0.99969 L 28.09968 -0.92835" />
    <path d="M 26.69386 0.9978 L 28.09968 1.06913" />
    <path d="M 27.30805 -1.03012 L 26.69386 -0.99969" />
    <path d="M 27.53903 -0.97107 A 0.8 0.04012 360 0 1 27.30805 -0.99927" />
    <path d="M 28.90805 -0.99927 A 0.8 0.04012 360 0 1 27.53903 -0.97107" />
    <path d="M 28.59339 0.08117 A 0.8 0.56831 92.90479 0 1 29.20296 -0.746 L 28.8515 -0.76383" />
    <path d="M 29.20296 -0.746 A 0.8 0.56831 92.90479 0 1 29.12187 0.85195 L 28.77042 0.83411" />
    <path d="M 29.12187 0.85195 A 0.8 0.56831 92.90479 0 1 28.59339 0.08117" />
    <path d="M 27.53903 -1.47044 A 0.8 0.04012 0 0 1 27.30805 -1.49864 L 27.30805 -0.99927" />
    <path d="M 27.30805 -1.49864 A 0.8 0.04012 0 0 1 28.90805 -1.49864 L 28.90805 -0.99927" />
    <path d="M 28.90805 -1.49864 A 0.8 0.04012 0 0 1 27.53903 -1.47044" />
    <path d="M 27.53903 1.52579 A 0.8 0.04012 180 0 0 28.90805 1.49759" />
    <path d="M 27.30805 1.49759 A 0.8 0.04012 180 0 0 27.53903 1.52579" />
    <path d="M -27.3646 -0.76278 L -27.71605 -0.78061" />
    <path d="M -27.44568 0.83516 L -27.79713 0.81733" />
    <path d="M -29.2595 -1.51542 L -29.2595 -1.01605" />
    <path d="M -27.6595 -1.51542 L -27.6595 -1.01605" />
    <path d="M -29.2595 1.01218 L -29.2595 1.4808" />
    <path d="M -27.6595 1.01229 L -27.6595 1.4808" />
    <path d="M -13.22271 -0.75858 L -13.57416 -0.77642" />
    <path d="M -13.30379 0.83936 L -13.65525 0.82153" />
    <path d="M -15.11762 -1.51123 L -15.11762 -1.01185" />
    <path d="M -15.11762 1.01637 L -15.11762 1.485" />
    <path d="M -13.51762 1.01648 L -13.51762 1.485" />
    <path d="M -0.97573 1.02057 L -0.97573 1.4892" />
    <path d="M 0.62427 1.02068 L 0.62427 1.4892" />
    <path d="M 13.16616 1.02477 L 13.16616 1.49339" />
    <path d="M 14.76616 1.02488 L 14.76616 1.49339" />
    <path d="M 27.30805 1.02896 L 27.30805 1.49759" />
    <path d="M 28.90805 1.02907 L 28.90805 1.49759" />
</svg>