<svg version="1.1" xmlns="http://www.w3.org/2000/svg" viewBox="-2.967740895546365 -11.543638789496924 5.596046672996965 14.281685868429816" fill="none" stroke="black" stroke-width="0.6%" vector-effect="non-scaling-stroke">
    <path d="M -1.20549 1.60733 A 0.655 0.62628 180 0 0 -0.14998 1.11177 L -0.14998 -1.81702 A 0.655 0.62628 360 0 1 -1.20549 -1.32146 A 0.655 0.62628 360 0 1 -1.45998 -1.81702 A 0.655 0.62628 360 0 1 -0.14998 -1.81702" />
    <path d="M -1.45998 1.11177 A 0.655 0.62628 180 0 0 -1.20549 1.60733" />
    <path d="M -1.60997 -7.73434 L -1.60997 -8.3201 L 0.35777 -8.66218 L 0 -10.54364 L -1.96774 -10.20156 L -1.60997 -8.3201" />
    <path d="M 0.35777 -8.07643 L 0.35777 -8.66218" />
    <path d="M -1.60997 -7.73434 L -1.36047 -7.77772" />
    <path d="M 0.21609 -8.0518 L 0.35777 -8.07643" />
    <path d="M -1.4132 -8.06143 A 0.8 0.23052 169.23337 0 1 0.15982 -8.34771" />
    <path d="M -1.41202 -8.04882 A 0.8 0.23052 169.23337 0 1 -1.4132 -8.06143" />
    <path d="M -1.96774 -9.6158 L -1.96774 -10.20156" />
    <path d="M -1.96774 -9.6158 L -1.60997 -7.73434" />
    <path d="M -1.59208 -9.29504 A 0.8 0.76492 360 0 1 -1.60498 -9.43187" />
    <path d="M -0.00498 -9.43187 A 0.8 0.76492 360 0 1 -1.59208 -9.29504" />
    <path d="M -1.32375 -7.59107 A 0.8 0.23052 169.23337 0 1 0.24926 -7.87735 L 0.15982 -8.34771" />
    <path d="M 0.24926 -7.87735 A 0.8 0.23052 169.23337 0 1 0.13154 -7.72024" />
    <path d="M -1.1554 -7.47552 A 0.8 0.23052 169.23337 0 1 -1.32257 -7.57845 L -1.41202 -8.04882" />
    <path d="M -1.32257 -7.57845 A 0.8 0.23052 169.23337 0 1 -1.32375 -7.59107" />
    <path d="M -1.59208 -9.44148 A 0.8 0.76492 360 0 1 -1.60498 -9.57831 L -1.60498 -9.43187" />
    <path d="M -1.60498 -9.57831 A 0.8 0.76492 360 0 1 -0.00498 -9.57831 L -0.00498 -9.43187" />
    <path d="M -0.00498 -9.57831 A 0.8 0.76492 360 0 1 -1.59208 -9.44148" />
    <path d="M -1.01556 -7.77301 A 0.655 0.18874 169.23337 0 1 0.10681 -7.85026" />
    <path d="M -1.18013 -7.60554 A 0.655 0.18874 169.23337 0 1 -1.01556 -7.77301" />
    <path d="M 0.50496 0.22317 A 0.655 0.18874 169.23337 0 1 1.62734 0.14592 L 0.10681 -7.85026" />
    <path d="M 1.62734 0.14592 A 0.655 0.18874 169.23337 0 1 0.3404 0.39064 L -1.18013 -7.60554" />
    <path d="M 0.3404 0.39064 A 0.655 0.18874 169.23337 0 1 0.50496 0.22317" />
    <path d="M -1.45998 1.11177 L -1.45998 -1.81702" />
</svg>