<svg version="1.1" xmlns="http://www.w3.org/2000/svg" viewBox="-7.962661391361988 -3.9611432980269226 15.873747519905358 7.900322269436252" fill="none" stroke="black" stroke-width="0.6%" vector-effect="non-scaling-stroke">
    <path d="M -6.50585 -1.35774 A 0.8 0.79496 113.06767 0 1 -5.39666 -2.09742 A 0.8 0.79496 113.06767 0 1 -6.02357 -0.62535 A 0.8 0.79496 113.06767 0 1 -6.50585 -1.35774 Z" />
    <path d="M -6.55743 -1.3797 A 0.8 0.79496 293.06767 0 0 -6.07515 -0.64731" />
    <path d="M -5.44824 -2.11938 A 0.8 0.79496 293.06767 0 0 -6.55743 -1.3797" />
    <path d="M -6.75636 -0.37977 L -6.75636 -2.37781 L -4.76703 -2.38693 L -4.97333 -2.47478 L -5.06484 -2.47436" />
    <path d="M -4.76703 -0.38888 L -4.76703 -2.38693" />
    <path d="M -6.75636 -0.37977 L -4.76703 -0.38888" />
    <path d="M -6.96266 -0.46762 L -6.96266 -2.46567 L -6.75636 -2.37781" />
    <path d="M -6.96266 -0.46762 L -6.75636 -0.37977" />
    <path d="M -6.66484 -2.46704 L -6.96266 -2.46567" />
    <path d="M -6.66058 -2.42265 A 0.8 0.03533 360 0 1 -6.66484 -2.4263" />
    <path d="M -5.06484 -2.4263 A 0.8 0.03533 360 0 1 -6.66058 -2.42265" />
    <path d="M -6.66058 -2.92217 A 0.8 0.03533 360 0 1 -6.66484 -2.92581 A 0.8 0.03533 360 1 1 -5.06484 -2.92581 A 0.8 0.03533 360 0 1 -6.66058 -2.92217 Z" />
    <path d="M -6.66058 0.07491 A 0.8 0.03533 180 0 0 -5.06484 0.07126" />
    <path d="M -6.66484 0.07126 A 0.8 0.03533 180 0 0 -6.66058 0.07491" />
    <path d="M -4.17023 -0.79122 A 0.8 0.79496 113.06767 0 1 -3.06104 -1.5309 A 0.8 0.79496 113.06767 0 1 -3.68795 -0.05883 A 0.8 0.79496 113.06767 0 1 -4.17023 -0.79122 Z" />
    <path d="M -4.2218 -0.81318 A 0.8 0.79496 293.06767 0 0 -3.73953 -0.08079" />
    <path d="M -3.11262 -1.55286 A 0.8 0.79496 293.06767 0 0 -4.2218 -0.81318" />
    <path d="M -4.42074 0.18675 L -4.42074 -1.8113 L -2.43141 -1.82041 L -2.63771 -1.90827 L -2.72922 -1.90785" />
    <path d="M -2.43141 0.17764 L -2.43141 -1.82041" />
    <path d="M -4.42074 0.18675 L -2.43141 0.17764" />
    <path d="M -4.62704 0.09889 L -4.62704 -1.89915 L -4.42074 -1.8113" />
    <path d="M -4.62704 0.09889 L -4.42074 0.18675" />
    <path d="M -4.32922 -1.90052 L -4.62704 -1.89915" />
    <path d="M -4.32495 -1.85614 A 0.8 0.03533 360 0 1 -4.32922 -1.85978" />
    <path d="M -2.72922 -1.85978 A 0.8 0.03533 360 0 1 -4.32495 -1.85614" />
    <path d="M -4.32495 -2.35565 A 0.8 0.03533 360 0 1 -4.32922 -2.35929 A 0.8 0.03533 360 1 1 -2.72922 -2.35929 A 0.8 0.03533 360 0 1 -4.32495 -2.35565 Z" />
    <path d="M -4.32495 0.64142 A 0.8 0.03533 180 0 0 -2.72922 0.63778" />
    <path d="M -4.32922 0.63778 A 0.8 0.03533 180 0 0 -4.32495 0.64142" />
    <path d="M -1.83461 -0.2247 A 0.8 0.79496 113.06767 0 1 -0.72542 -0.96438 A 0.8 0.79496 113.06767 0 1 -1.35233 0.50769 A 0.8 0.79496 113.06767 0 1 -1.83461 -0.2247 Z" />
    <path d="M -1.88618 -0.24667 A 0.8 0.79496 293.06767 0 0 -1.4039 0.48572" />
    <path d="M -0.77699 -0.98635 A 0.8 0.79496 293.06767 0 0 -1.88618 -0.24667" />
    <path d="M -2.08511 0.75327 L -2.08511 -1.24478 L -0.09578 -1.25389 L -0.30208 -1.34175 L -0.3936 -1.34133" />
    <path d="M -0.09578 0.74416 L -0.09578 -1.25389" />
    <path d="M -2.08511 0.75327 L -0.09578 0.74416" />
    <path d="M -2.29142 0.66541 L -2.29142 -1.33264 L -2.08511 -1.24478" />
    <path d="M -2.29142 0.66541 L -2.08511 0.75327" />
    <path d="M -1.9936 -1.334 L -2.29142 -1.33264" />
    <path d="M -1.98933 -1.28962 A 0.8 0.03533 360 0 1 -1.9936 -1.29326" />
    <path d="M -0.3936 -1.29326 A 0.8 0.03533 360 0 1 -1.98933 -1.28962" />
    <path d="M -1.98933 -1.78913 A 0.8 0.03533 360 0 1 -1.9936 -1.79278 L -1.9936 -1.29326" />
    <path d="M -1.9936 -1.79278 A 0.8 0.03533 360 1 1 -0.3936 -1.79278 L -0.3936 -1.29326" />
    <path d="M -0.3936 -1.79278 A 0.8 0.03533 360 0 1 -1.98933 -1.78913" />
    <path d="M -1.98933 1.20794 A 0.8 0.03533 180 0 0 -0.3936 1.2043" />
    <path d="M -1.9936 1.2043 A 0.8 0.03533 180 0 0 -1.98933 1.20794" />
    <path d="M 0.50102 0.34181 A 0.8 0.79496 113.06767 0 1 1.6102 -0.39786 L 1.55863 -0.41983 A 0.8 0.79496 293.06767 0 0 0.44944 0.31985 A 0.8 0.79496 293.06767 0 0 0.93172 1.05224" />
    <path d="M 1.6102 -0.39786 A 0.8 0.79496 113.06767 0 1 0.9833 1.0742 L 0.93172 1.05224" />
    <path d="M 0.9833 1.0742 A 0.8 0.79496 113.06767 0 1 0.50102 0.34181" />
    <path d="M 0.25051 1.31978 L 0.25051 -0.67826 L 2.23984 -0.68737 L 2.03354 -0.77523 L 1.94202 -0.77481" />
    <path d="M 2.23984 1.31067 L 2.23984 -0.68737" />
    <path d="M 0.25051 1.31978 L 2.23984 1.31067" />
    <path d="M 0.04421 1.23193 L 0.04421 -0.76612 L 0.25051 -0.67826" />
    <path d="M 0.04421 1.23193 L 0.25051 1.31978" />
    <path d="M 0.34202 -0.76749 L 0.04421 -0.76612" />
    <path d="M 0.34629 -0.7231 A 0.8 0.03533 360 0 1 0.34202 -0.72675" />
    <path d="M 1.94202 -0.72675 A 0.8 0.03533 360 0 1 0.34629 -0.7231" />
    <path d="M 0.34629 -1.22262 A 0.8 0.03533 360 0 1 0.34202 -1.22626 L 0.34202 -0.72675" />
    <path d="M 0.34202 -1.22626 A 0.8 0.03533 360 1 1 1.94202 -1.22626 L 1.94202 -0.72675" />
    <path d="M 1.94202 -1.22626 A 0.8 0.03533 360 0 1 0.34629 -1.22262" />
    <path d="M 0.34629 1.77446 A 0.8 0.03533 180 0 0 1.94202 1.77081" />
    <path d="M 0.34202 1.77081 A 0.8 0.03533 180 0 0 0.34629 1.77446" />
    <path d="M 2.83664 0.90833 A 0.8 0.79496 113.06767 0 1 3.94583 0.16865 L 3.89425 0.14669 A 0.8 0.79496 293.06767 0 0 2.78506 0.88637 A 0.8 0.79496 293.06767 0 0 3.26734 1.61876" />
    <path d="M 3.94583 0.16865 A 0.8 0.79496 113.06767 0 1 3.31892 1.64072 L 3.26734 1.61876" />
    <path d="M 3.31892 1.64072 A 0.8 0.79496 113.06767 0 1 2.83664 0.90833" />
    <path d="M 2.58613 1.8863 L 2.58613 -0.11175 L 4.57546 -0.12086 L 4.36916 -0.20872 L 4.27765 -0.2083" />
    <path d="M 4.57546 1.87719 L 4.57546 -0.12086" />
    <path d="M 2.58613 1.8863 L 4.57546 1.87719" />
    <path d="M 2.37983 1.79844 L 2.37983 -0.1996 L 2.58613 -0.11175" />
    <path d="M 2.37983 1.79844 L 2.58613 1.8863" />
    <path d="M 2.67765 -0.20097 L 2.37983 -0.1996" />
    <path d="M 2.68191 -0.15659 A 0.8 0.03533 360 0 1 2.67765 -0.16023" />
    <path d="M 4.27765 -0.16023 A 0.8 0.03533 360 0 1 2.68191 -0.15659" />
    <path d="M 2.68191 -0.6561 A 0.8 0.03533 360 0 1 2.67765 -0.65974 L 2.67765 -0.16023" />
    <path d="M 2.67765 -0.65974 A 0.8 0.03533 360 1 1 4.27765 -0.65974 L 4.27765 -0.16023" />
    <path d="M 4.27765 -0.65974 A 0.8 0.03533 360 0 1 2.68191 -0.6561" />
    <path d="M 2.68191 2.34097 A 0.8 0.03533 180 0 0 4.27765 2.33733" />
    <path d="M 2.67765 2.33733 A 0.8 0.03533 180 0 0 2.68191 2.34097" />
    <path d="M 5.17226 1.47485 A 0.8 0.79496 113.06767 0 1 6.28145 0.73517 L 6.22987 0.7132 A 0.8 0.79496 293.06767 0 0 5.12069 1.45288 A 0.8 0.79496 293.06767 0 0 5.60296 2.18527" />
    <path d="M 6.28145 0.73517 A 0.8 0.79496 113.06767 0 1 5.65454 2.20724 L 5.60296 2.18527" />
    <path d="M 5.65454 2.20724 A 0.8 0.79496 113.06767 0 1 5.17226 1.47485" />
    <path d="M 4.92175 2.45282 L 4.92175 0.45477 L 6.91109 0.44566 L 6.70478 0.3578 L 6.61327 0.35822" />
    <path d="M 6.91109 2.44371 L 6.91109 0.44566" />
    <path d="M 4.92175 2.45282 L 6.91109 2.44371" />
    <path d="M 4.71545 2.36496 L 4.71545 0.36691 L 4.92175 0.45477" />
    <path d="M 4.71545 2.36496 L 4.92175 2.45282" />
    <path d="M 5.01327 0.36555 L 4.71545 0.36691" />
    <path d="M 5.01754 0.40993 A 0.8 0.03533 360 0 1 5.01327 0.40629" />
    <path d="M 6.61327 0.40629 A 0.8 0.03533 360 0 1 5.01754 0.40993" />
    <path d="M 5.01754 -0.08958 A 0.8 0.03533 360 0 1 5.01327 -0.09323 L 5.01327 0.40629" />
    <path d="M 5.01327 -0.09323 A 0.8 0.03533 360 1 1 6.61327 -0.09323 L 6.61327 0.40629" />
    <path d="M 6.61327 -0.09323 A 0.8 0.03533 360 0 1 5.01754 -0.08958" />
    <path d="M 5.01754 2.90749 A 0.8 0.03533 180 0 0 6.61327 2.90385" />
    <path d="M 5.01327 2.90385 A 0.8 0.03533 180 0 0 5.01754 2.90749" />
    <path d="M -5.39666 -2.09742 L -5.44824 -2.11938" />
    <path d="M -6.02357 -0.62535 L -6.07515 -0.64731" />
    <path d="M -6.66484 -2.92581 L -6.66484 -2.4263" />
    <path d="M -5.06484 -2.92581 L -5.06484 -2.4263" />
    <path d="M -6.66484 -0.38019 L -6.66484 0.07126" />
    <path d="M -5.06484 -0.38751 L -5.06484 0.07126" />
    <path d="M -3.06104 -1.5309 L -3.11262 -1.55286" />
    <path d="M -3.68795 -0.05883 L -3.73953 -0.08079" />
    <path d="M -4.32922 -2.35929 L -4.32922 -1.85978" />
    <path d="M -2.72922 -2.35929 L -2.72922 -1.85978" />
    <path d="M -4.32922 0.18633 L -4.32922 0.63778" />
    <path d="M -2.72922 0.179 L -2.72922 0.63778" />
    <path d="M -0.72542 -0.96438 L -0.77699 -0.98635" />
    <path d="M -1.35233 0.50769 L -1.4039 0.48572" />
    <path d="M -1.9936 0.75285 L -1.9936 1.2043" />
    <path d="M -0.3936 0.74552 L -0.3936 1.2043" />
    <path d="M 0.34202 1.31937 L 0.34202 1.77081" />
    <path d="M 1.94202 1.31204 L 1.94202 1.77081" />
    <path d="M 2.67765 1.88588 L 2.67765 2.33733" />
    <path d="M 4.27765 1.87855 L 4.27765 2.33733" />
    <path d="M 5.01327 2.4524 L 5.01327 2.90385" />
    <path d="M 6.61327 2.44507 L 6.61327 2.90385" />
</svg>