<svg version="1.1" xmlns="http://www.w3.org/2000/svg" viewBox="-2.9645592172767232 -11.517853660680718 5.624926273191345 14.297724436840234" fill="none" stroke="black" stroke-width="0.6%" vector-effect="non-scaling-stroke">
    <path d="M -1.22367 1.65128 A 0.655 0.62606 180 0 0 -0.171 1.15381 L -0.171 -1.78603 A 0.655 0.62606 360 0 1 -1.22367 -1.28856 A 0.655 0.62606 360 0 1 -1.481 -1.78603 A 0.655 0.62606 360 0 1 -0.171 -1.78603" />
    <path d="M -1.481 1.15381 A 0.655 0.62606 180 0 0 -1.22367 1.65128" />
    <path d="M -1.66487 -7.7534 L -1.66487 -8.34137 L 0.31255 -8.62781 L 0.01286 -10.51785 L -1.96456 -10.23141 L -1.66487 -8.34137" />
    <path d="M 0.31255 -8.03985 L 0.31255 -8.62781" />
    <path d="M -1.66487 -7.7534 L -1.4224 -7.78853" />
    <path d="M 0.16122 -8.01792 L 0.31255 -8.03985" />
    <path d="M -1.46713 -8.07603 A 0.8 0.23253 170.99006 0 1 0.11397 -8.31589" />
    <path d="M -1.46629 -8.06532 A 0.8 0.23253 170.99006 0 1 -1.46713 -8.07603" />
    <path d="M -1.96456 -9.64344 L -1.96456 -10.23141" />
    <path d="M -1.96456 -9.64344 L -1.66487 -7.7534" />
    <path d="M -1.61697 -9.31503 A 0.8 0.76465 0 0 1 -1.626 -9.42961" />
    <path d="M -0.026 -9.42961 A 0.8 0.76465 0 0 1 -1.61697 -9.31503" />
    <path d="M -1.39221 -7.60352 A 0.8 0.23253 170.99006 0 1 0.18889 -7.84338 L 0.11397 -8.31589" />
    <path d="M 0.18889 -7.84338 A 0.8 0.23253 170.99006 0 1 0.11823 -7.7246" />
    <path d="M -1.16715 -7.47181 A 0.8 0.23253 170.99006 0 1 -1.39137 -7.59281 L -1.46629 -8.06532" />
    <path d="M -1.39137 -7.59281 A 0.8 0.23253 170.99006 0 1 -1.39221 -7.60352" />
    <path d="M -1.61697 -9.46202 A 0.8 0.76465 360 0 1 -1.626 -9.5766 L -1.626 -9.42961" />
    <path d="M -1.626 -9.5766 A 0.8 0.76465 360 0 1 -0.026 -9.5766 L -0.026 -9.42961" />
    <path d="M -0.026 -9.5766 A 0.8 0.76465 360 0 1 -1.61697 -9.46202" />
    <path d="M -1.03101 -7.78469 L -0.95173 -7.81829 L -0.86112 -7.84928 L -0.76174 -7.87678 L -0.65638 -7.90003 L -0.54801 -7.91837 L -0.43968 -7.93128 L -0.33444 -7.9384 L -0.23526 -7.93952 L -0.14492 -7.93463 L -0.06597 -7.92385 L -0.00063 -7.90748 L 0.04925 -7.886 L 0.08227 -7.86 L 0.09751 -7.83021" />
    <path d="M -1.19641 -7.62099 L -1.19745 -7.63169 L -1.19642 -7.6427 L -1.19334 -7.65396 L -1.18822 -7.66546 L -1.18106 -7.67714 L -1.17189 -7.68899 L -1.16074 -7.70094 L -1.14764 -7.71298 L -1.13265 -7.72505 L -1.1158 -7.73713 L -1.09715 -7.74917 L -1.07675 -7.76114 L -1.05468 -7.77299 L -1.03101 -7.78469" />
    <path d="M 0.53816 0.2157 A 0.655 0.18926 168.90312 0 1 1.65933 0.13275 L 0.09751 -7.83021" />
    <path d="M 1.65933 0.13275 A 0.655 0.18926 168.90312 1 1 0.37383 0.38489 L -1.19641 -7.62099" />
    <path d="M 0.37383 0.38489 A 0.655 0.18926 168.90312 0 1 0.53816 0.2157" />
    <path d="M -1.481 1.15381 L -1.481 -1.78603" />
</svg>