<svg version="1.1" xmlns="http://www.w3.org/2000/svg" viewBox="-19.35786975686456 -2.8041189563800692 38.562757274189224 5.577543081934357" fill="none" stroke="black" stroke-width="0.6%" vector-effect="non-scaling-stroke">
    <path d="M -17.0696 0.86511 L -17.0696 -1.12844 L -15.53977 -1.23183 L -16.14882 -1.28988" />
    <path d="M -15.53977 0.76172 L -15.53977 0.36773" />
    <path d="M -15.53977 -0.73292 L -15.53977 -1.23183" />
    <path d="M -17.0696 0.86511 L -15.53977 0.76172" />
    <path d="M -16.91662 -0.142 A 0.8 0.60995 95.44416 0 1 -16.22879 -0.97975" />
    <path d="M -16.38059 0.61303 A 0.8 0.60995 95.44416 0 1 -16.91662 -0.142" />
    <path d="M -18.35787 0.74233 L -18.35787 -1.25122 L -17.0696 -1.12844" />
    <path d="M -18.35787 0.74233 L -17.0696 0.86511" />
    <path d="M -17.74882 -1.29238 L -18.35787 -1.25122" />
    <path d="M -17.56075 -1.20017 A 0.8 0.06421 360 0 1 -17.74882 -1.24153" />
    <path d="M -16.14882 -1.24153 A 0.8 0.06421 360 0 1 -17.56075 -1.20017" />
    <path d="M -16.59455 -0.11131 A 0.8 0.60995 95.44416 0 1 -15.90672 -0.94906 A 0.8 0.60995 95.44416 0 1 -16.05852 0.64372 A 0.8 0.60995 95.44416 0 1 -16.59455 -0.11131 Z" />
    <path d="M -17.56075 -1.69855 A 0.8 0.06421 360 0 1 -17.74882 -1.73991 A 0.8 0.06421 360 0 1 -16.14882 -1.73991 A 0.8 0.06421 360 0 1 -17.56075 -1.69855 Z" />
    <path d="M -17.56075 1.29177 A 0.8 0.06421 180 0 0 -16.14882 1.25041" />
    <path d="M -17.74882 1.25041 A 0.8 0.06421 180 0 0 -17.56075 1.29177" />
    <path d="M -0.28181 1.09451 L -0.28181 -0.89904 L 1.24801 -1.00243 L 0.63897 -1.06047" />
    <path d="M 1.24801 0.99112 L 1.24801 0.59713" />
    <path d="M 1.24801 -0.50352 L 1.24801 -1.00243" />
    <path d="M -0.28181 1.09451 L 1.24801 0.99112" />
    <path d="M -0.12883 0.0874 A 0.8 0.60995 95.44416 0 1 0.559 -0.75035" />
    <path d="M 0.4072 0.84243 A 0.8 0.60995 95.44416 0 1 -0.12883 0.0874" />
    <path d="M -1.57008 0.97173 L -1.57008 -1.02181 L -0.28181 -0.89904" />
    <path d="M -1.57008 0.97173 L -0.28181 1.09451" />
    <path d="M -0.96103 -1.06298 L -1.57008 -1.02181" />
    <path d="M -0.77296 -0.97076 A 0.8 0.06421 360 0 1 -0.96103 -1.01212" />
    <path d="M 0.63897 -1.01212 A 0.8 0.06421 360 0 1 -0.77296 -0.97076" />
    <path d="M 0.19324 0.11809 A 0.8 0.60995 95.44416 0 1 0.88107 -0.71965 L 0.559 -0.75035" />
    <path d="M 0.88107 -0.71965 A 0.8 0.60995 95.44416 0 1 0.72927 0.87313 L 0.4072 0.84243" />
    <path d="M 0.72927 0.87313 A 0.8 0.60995 95.44416 0 1 0.19324 0.11809" />
    <path d="M -0.77296 -1.46915 A 0.8 0.06421 360 0 1 -0.96103 -1.51051 L -0.96103 -1.01212" />
    <path d="M -0.96103 -1.51051 A 0.8 0.06421 360 0 1 0.63897 -1.51051 L 0.63897 -1.01212" />
    <path d="M 0.63897 -1.51051 A 0.8 0.06421 360 0 1 -0.77296 -1.46915" />
    <path d="M -0.77296 1.52117 A 0.8 0.06421 180 0 0 0.63897 1.47981" />
    <path d="M -0.96103 1.47981 A 0.8 0.06421 180 0 0 -0.77296 1.52117" />
    <path d="M 16.50598 1.32392 L 16.50598 -0.66963 L 18.0358 -0.77303 L 17.42675 -0.83107" />
    <path d="M 18.0358 1.22052 L 18.0358 0.82653" />
    <path d="M 18.0358 -0.27411 L 18.0358 -0.77303" />
    <path d="M 16.50598 1.32392 L 18.0358 1.22052" />
    <path d="M 16.65896 0.3168 A 0.8 0.60995 95.44416 0 1 17.34679 -0.52095" />
    <path d="M 17.19499 1.07184 A 0.8 0.60995 95.44416 0 1 16.65896 0.3168" />
    <path d="M 15.21771 1.20114 L 15.21771 -0.79241 L 16.50598 -0.66963" />
    <path d="M 15.21771 1.20114 L 16.50598 1.32392" />
    <path d="M 15.82675 -0.83357 L 15.21771 -0.79241" />
    <path d="M 16.01482 -0.74136 A 0.8 0.06421 360 0 1 15.82675 -0.78272" />
    <path d="M 17.42675 -0.78272 A 0.8 0.06421 360 0 1 16.01482 -0.74136" />
    <path d="M 16.98103 0.3475 A 0.8 0.60995 95.44416 0 1 17.66886 -0.49025 L 17.34679 -0.52095" />
    <path d="M 17.66886 -0.49025 A 0.8 0.60995 95.44416 0 1 17.51706 1.10253 L 17.19499 1.07184" />
    <path d="M 17.51706 1.10253 A 0.8 0.60995 95.44416 0 1 16.98103 0.3475" />
    <path d="M 16.01482 -1.23975 A 0.8 0.06421 360 0 1 15.82675 -1.28111 L 15.82675 -0.78272" />
    <path d="M 15.82675 -1.28111 A 0.8 0.06421 360 0 1 17.42675 -1.28111 L 17.42675 -0.78272" />
    <path d="M 17.42675 -1.28111 A 0.8 0.06421 360 0 1 16.01482 -1.23975" />
    <path d="M 16.01482 1.75057 A 0.8 0.06421 180 0 0 17.42675 1.70922" />
    <path d="M 15.82675 1.70922 A 0.8 0.06421 180 0 0 16.01482 1.75057" />
    <path d="M -15.90672 -0.94906 L -16.22879 -0.97975" />
    <path d="M -16.05852 0.64372 L -16.38059 0.61303" />
    <path d="M -17.74882 -1.73991 L -17.74882 -1.24153" />
    <path d="M -16.14882 -1.73991 L -16.14882 -1.24153" />
    <path d="M -17.74882 0.80038 L -17.74882 1.25041" />
    <path d="M -16.14882 0.80288 L -16.14882 1.25041" />
    <path d="M -0.96103 1.02978 L -0.96103 1.47981" />
    <path d="M 0.63897 1.03228 L 0.63897 1.47981" />
    <path d="M 15.82675 1.25918 L 15.82675 1.70922" />
    <path d="M 17.42675 1.26169 L 17.42675 1.70922" />
</svg>